<svg width="23" height="31" viewBox="0 0 23 31" fill="none" xmlns="http://www.w3.org/2000/svg">
<path d="M1.32031 25.457L7.33594 16.0469V15.6602L1.92188 7.45312C1.76432 7.20964 1.61393 6.97331 1.4707 6.74414C1.32747 6.50065 1.19141 6.26432 1.0625 6.03516C0.847656 5.64844 0.647135 5.24023 0.460938 4.81055C0.289062 4.38086 0.203125 4.01562 0.203125 3.71484C0.203125 3.32812 0.310547 2.93424 0.525391 2.5332C0.754557 2.13216 1.14844 1.76693 1.70703 1.4375C2.35156 1.09375 2.9388 0.921875 3.46875 0.921875C4.28516 0.921875 4.95833 1.2513 5.48828 1.91016C6.03255 2.55469 6.53385 3.25651 6.99219 4.01562L10.9883 10.5898H11.6328L15.6289 4.01562C16.1016 3.25651 16.6029 2.55469 17.1328 1.91016C17.6628 1.2513 18.3359 0.921875 19.1523 0.921875C19.4102 0.921875 19.6823 0.972005 19.9688 1.07227C20.2695 1.17253 20.5846 1.30859 20.9141 1.48047C21.5156 1.8099 21.931 2.16797 22.1602 2.55469C22.3893 2.92708 22.5039 3.29948 22.5039 3.67188C22.5039 3.98698 22.4108 4.35938 22.2246 4.78906C22.0384 5.21875 21.8307 5.63411 21.6016 6.03516C21.3438 6.50781 21.043 6.98047 20.6992 7.45312L15.3281 15.6602V16.0469L21.3008 25.457C21.6016 25.9297 21.8594 26.4023 22.0742 26.875C22.3034 27.3333 22.418 27.7917 22.418 28.25C22.418 28.6367 22.3105 29.0234 22.0957 29.4102C21.8952 29.7826 21.5156 30.1406 20.957 30.4844C20.3125 30.8281 19.7253 31 19.1953 31C18.4505 31 17.8346 30.7279 17.3477 30.1836C16.8607 29.6393 16.4023 29.0378 15.9727 28.3789L11.6328 21.332H10.9883L6.64844 28.3789C6.21875 29.0378 5.76042 29.6393 5.27344 30.1836C4.78646 30.7279 4.1849 31 3.46875 31C2.92448 31 2.35156 30.8281 1.75 30.4844C1.16276 30.1406 0.754557 29.7826 0.525391 29.4102C0.310547 29.0234 0.203125 28.6367 0.203125 28.25C0.203125 27.7917 0.310547 27.3333 0.525391 26.875C0.754557 26.4023 1.01953 25.9297 1.32031 25.457Z" fill="white"/>
</svg>
